<svg width="120" height="27" viewBox="0 0 120 27" fill="none" xmlns="http://www.w3.org/2000/svg">
<g clip-path="url(#clip0_2_287)">
<path d="M1 4.875C5.5 4.875 8.16667 2.63889 9 2H17V25H7V10.625H1V4.875Z" fill="url(#paint0_linear_2_287)"/>
<path d="M19 25V2H29.5V10.1458L37 2H48V2.95833L39.5 11.5833L49 25H36.5L32 16.8542L29.5 19.25V25H19Z" fill="url(#paint1_linear_2_287)"/>
<path d="M118.498 11H109.498C109.498 9.5 108.898 7 104.498 7C100.098 7 99.4979 9.7031 99.4979 11V16C99.4979 17.5 100.998 20 104.498 20C108.898 20 108.998 17.5 108.998 16H104.498V12.5H118.498V25H110L109.998 21.5H108.998C108.665 22.6667 106.598 25 100.998 25C90.198 25 89.5 15.5 89.9999 11C90.552 6.03057 94.798 1 103.998 1C113.198 1 117.498 7.66667 118.498 11Z" fill="url(#paint2_linear_2_287)"/>
<path d="M50.5 25V1L60.6364 10.7959L60.5 25H50.5Z" fill="url(#paint3_linear_2_287)"/>
<path d="M62.5 25V8.5L70 1.5L80.8961 12.7551V8.83673L88.5 1.76076V25H82.4156L70.7662 13.2449V25H62.5Z" fill="url(#paint4_linear_2_287)"/>
</g>
<defs>
<linearGradient id="paint0_linear_2_287" x1="118.498" y1="13" x2="1" y2="13" gradientUnits="userSpaceOnUse">
<stop stop-color="#DC2000"/>
<stop offset="1" stop-color="#761100"/>
</linearGradient>
<linearGradient id="paint1_linear_2_287" x1="118.498" y1="13" x2="1" y2="13" gradientUnits="userSpaceOnUse">
<stop stop-color="#DC2000"/>
<stop offset="1" stop-color="#761100"/>
</linearGradient>
<linearGradient id="paint2_linear_2_287" x1="118.498" y1="13" x2="0.999995" y2="13" gradientUnits="userSpaceOnUse">
<stop stop-color="#DC2000"/>
<stop offset="1" stop-color="#761100"/>
</linearGradient>
<linearGradient id="paint3_linear_2_287" x1="118.498" y1="13" x2="1.00001" y2="13" gradientUnits="userSpaceOnUse">
<stop stop-color="#DC2000"/>
<stop offset="1" stop-color="#761100"/>
</linearGradient>
<linearGradient id="paint4_linear_2_287" x1="118.498" y1="13" x2="1" y2="13" gradientUnits="userSpaceOnUse">
<stop stop-color="#DC2000"/>
<stop offset="1" stop-color="#761100"/>
</linearGradient>
<clipPath id="clip0_2_287">
<rect width="120" height="27" fill="white"/>
</clipPath>
</defs>
</svg>
